{
	"asset":{
		"generator":"Khronos glTF Blender I/O v3.6.28",
		"version":"2.0"
	},
	"scene":0,
	"scenes":[
		{
			"name":"Scene",
			"nodes":[
				25
			]
		}
	],
	"nodes":[
		{
			"name":"bHorizontal.010.L",
			"translation":[
				0,
				1,
				0
			]
		},
		{
			"children":[
				0
			],
			"name":"bHorizontal.009.L",
			"translation":[
				0,
				1,
				0
			]
		},
		{
			"children":[
				1
			],
			"name":"bHorizontal.008.L",
			"translation":[
				0,
				1,
				0
			]
		},
		{
			"children":[
				2
			],
			"name":"bHorizontal.007.L",
			"translation":[
				0,
				1,
				0
			]
		},
		{
			"children":[
				3
			],
			"name":"bHorizontal.006.L",
			"translation":[
				0,
				1,
				0
			]
		},
		{
			"children":[
				4
			],
			"name":"bHorizontal.005.L",
			"translation":[
				0,
				1,
				0
			]
		},
		{
			"children":[
				5
			],
			"name":"bHorizontal.004.L",
			"translation":[
				0,
				1,
				0
			]
		},
		{
			"children":[
				6
			],
			"name":"bHorizontal.003.L",
			"translation":[
				0,
				1,
				0
			]
		},
		{
			"children":[
				7
			],
			"name":"bHorizontal.002.L",
			"translation":[
				0,
				1,
				0
			]
		},
		{
			"children":[
				8
			],
			"name":"bHorizontal.001.L",
			"translation":[
				0,
				1,
				0
			]
		},
		{
			"children":[
				9
			],
			"name":"bHorizontal.L",
			"rotation":[
				-2.6692537957728746e-08,
				-2.6692537957728746e-08,
				-0.7071067690849304,
				0.7071067690849304
			],
			"translation":[
				1,
				0,
				0
			]
		},
		{
			"name":"bHorizontal.010.R",
			"translation":[
				0,
				1,
				0
			]
		},
		{
			"children":[
				11
			],
			"name":"bHorizontal.009.R",
			"translation":[
				0,
				1,
				0
			]
		},
		{
			"children":[
				12
			],
			"name":"bHorizontal.008.R",
			"translation":[
				0,
				1,
				0
			]
		},
		{
			"children":[
				13
			],
			"name":"bHorizontal.007.R",
			"translation":[
				0,
				1,
				0
			]
		},
		{
			"children":[
				14
			],
			"name":"bHorizontal.006.R",
			"translation":[
				0,
				1,
				0
			]
		},
		{
			"children":[
				15
			],
			"name":"bHorizontal.005.R",
			"translation":[
				0,
				1,
				0
			]
		},
		{
			"children":[
				16
			],
			"name":"bHorizontal.004.R",
			"translation":[
				0,
				1,
				0
			]
		},
		{
			"children":[
				17
			],
			"name":"bHorizontal.003.R",
			"translation":[
				0,
				1,
				0
			]
		},
		{
			"children":[
				18
			],
			"name":"bHorizontal.002.R",
			"translation":[
				0,
				1,
				0
			]
		},
		{
			"children":[
				19
			],
			"name":"bHorizontal.001.R",
			"translation":[
				0,
				1,
				0
			]
		},
		{
			"children":[
				20
			],
			"name":"bHorizontal.R",
			"rotation":[
				-2.6692537957728746e-08,
				2.6692537957728746e-08,
				0.7071067690849304,
				0.7071067690849304
			],
			"translation":[
				-1,
				0,
				0
			]
		},
		{
			"name":"bVertical",
			"translation":[
				0,
				-5,
				-1
			]
		},
		{
			"children":[
				10,
				21,
				22
			],
			"name":"bRoot"
		},
		{
			"mesh":0,
			"name":"Plane",
			"skin":0
		},
		{
			"children":[
				24,
				23
			],
			"name":"Arrows"
		}
	],
	"animations":[
		{
			"channels":[
				{
					"sampler":0,
					"target":{
						"node":9,
						"path":"rotation"
					}
				},
				{
					"sampler":1,
					"target":{
						"node":15,
						"path":"rotation"
					}
				},
				{
					"sampler":2,
					"target":{
						"node":21,
						"path":"rotation"
					}
				},
				{
					"sampler":3,
					"target":{
						"node":12,
						"path":"rotation"
					}
				},
				{
					"sampler":4,
					"target":{
						"node":23,
						"path":"rotation"
					}
				},
				{
					"sampler":5,
					"target":{
						"node":1,
						"path":"rotation"
					}
				},
				{
					"sampler":6,
					"target":{
						"node":18,
						"path":"rotation"
					}
				},
				{
					"sampler":7,
					"target":{
						"node":8,
						"path":"rotation"
					}
				},
				{
					"sampler":8,
					"target":{
						"node":3,
						"path":"rotation"
					}
				},
				{
					"sampler":9,
					"target":{
						"node":19,
						"path":"rotation"
					}
				},
				{
					"sampler":10,
					"target":{
						"node":16,
						"path":"rotation"
					}
				},
				{
					"sampler":11,
					"target":{
						"node":22,
						"path":"rotation"
					}
				},
				{
					"sampler":12,
					"target":{
						"node":10,
						"path":"rotation"
					}
				},
				{
					"sampler":13,
					"target":{
						"node":4,
						"path":"rotation"
					}
				},
				{
					"sampler":14,
					"target":{
						"node":17,
						"path":"rotation"
					}
				},
				{
					"sampler":15,
					"target":{
						"node":5,
						"path":"rotation"
					}
				},
				{
					"sampler":16,
					"target":{
						"node":2,
						"path":"rotation"
					}
				},
				{
					"sampler":17,
					"target":{
						"node":20,
						"path":"rotation"
					}
				},
				{
					"sampler":18,
					"target":{
						"node":11,
						"path":"rotation"
					}
				},
				{
					"sampler":19,
					"target":{
						"node":7,
						"path":"rotation"
					}
				},
				{
					"sampler":20,
					"target":{
						"node":14,
						"path":"rotation"
					}
				},
				{
					"sampler":21,
					"target":{
						"node":13,
						"path":"rotation"
					}
				},
				{
					"sampler":22,
					"target":{
						"node":6,
						"path":"rotation"
					}
				},
				{
					"sampler":23,
					"target":{
						"node":0,
						"path":"rotation"
					}
				}
			],
			"name":"End",
			"samplers":[
				{
					"input":8,
					"interpolation":"LINEAR",
					"output":9
				},
				{
					"input":8,
					"interpolation":"LINEAR",
					"output":10
				},
				{
					"input":8,
					"interpolation":"LINEAR",
					"output":11
				},
				{
					"input":8,
					"interpolation":"LINEAR",
					"output":12
				},
				{
					"input":8,
					"interpolation":"LINEAR",
					"output":13
				},
				{
					"input":8,
					"interpolation":"LINEAR",
					"output":14
				},
				{
					"input":8,
					"interpolation":"LINEAR",
					"output":15
				},
				{
					"input":8,
					"interpolation":"LINEAR",
					"output":16
				},
				{
					"input":8,
					"interpolation":"LINEAR",
					"output":17
				},
				{
					"input":8,
					"interpolation":"LINEAR",
					"output":18
				},
				{
					"input":8,
					"interpolation":"LINEAR",
					"output":19
				},
				{
					"input":8,
					"interpolation":"LINEAR",
					"output":20
				},
				{
					"input":8,
					"interpolation":"LINEAR",
					"output":21
				},
				{
					"input":8,
					"interpolation":"LINEAR",
					"output":22
				},
				{
					"input":8,
					"interpolation":"LINEAR",
					"output":23
				},
				{
					"input":8,
					"interpolation":"LINEAR",
					"output":24
				},
				{
					"input":8,
					"interpolation":"LINEAR",
					"output":25
				},
				{
					"input":8,
					"interpolation":"LINEAR",
					"output":26
				},
				{
					"input":8,
					"interpolation":"LINEAR",
					"output":27
				},
				{
					"input":8,
					"interpolation":"LINEAR",
					"output":28
				},
				{
					"input":8,
					"interpolation":"LINEAR",
					"output":29
				},
				{
					"input":8,
					"interpolation":"LINEAR",
					"output":30
				},
				{
					"input":8,
					"interpolation":"LINEAR",
					"output":31
				},
				{
					"input":8,
					"interpolation":"LINEAR",
					"output":32
				}
			]
		},
		{
			"channels":[
				{
					"sampler":0,
					"target":{
						"node":23,
						"path":"rotation"
					}
				},
				{
					"sampler":1,
					"target":{
						"node":10,
						"path":"rotation"
					}
				},
				{
					"sampler":2,
					"target":{
						"node":10,
						"path":"translation"
					}
				},
				{
					"sampler":3,
					"target":{
						"node":9,
						"path":"rotation"
					}
				},
				{
					"sampler":4,
					"target":{
						"node":8,
						"path":"rotation"
					}
				},
				{
					"sampler":5,
					"target":{
						"node":7,
						"path":"rotation"
					}
				},
				{
					"sampler":6,
					"target":{
						"node":6,
						"path":"rotation"
					}
				},
				{
					"sampler":7,
					"target":{
						"node":5,
						"path":"rotation"
					}
				},
				{
					"sampler":8,
					"target":{
						"node":4,
						"path":"rotation"
					}
				},
				{
					"sampler":9,
					"target":{
						"node":3,
						"path":"rotation"
					}
				},
				{
					"sampler":10,
					"target":{
						"node":2,
						"path":"rotation"
					}
				},
				{
					"sampler":11,
					"target":{
						"node":1,
						"path":"rotation"
					}
				},
				{
					"sampler":12,
					"target":{
						"node":0,
						"path":"rotation"
					}
				},
				{
					"sampler":13,
					"target":{
						"node":21,
						"path":"rotation"
					}
				},
				{
					"sampler":14,
					"target":{
						"node":21,
						"path":"translation"
					}
				},
				{
					"sampler":15,
					"target":{
						"node":20,
						"path":"rotation"
					}
				},
				{
					"sampler":16,
					"target":{
						"node":19,
						"path":"rotation"
					}
				},
				{
					"sampler":17,
					"target":{
						"node":18,
						"path":"rotation"
					}
				},
				{
					"sampler":18,
					"target":{
						"node":17,
						"path":"rotation"
					}
				},
				{
					"sampler":19,
					"target":{
						"node":16,
						"path":"rotation"
					}
				},
				{
					"sampler":20,
					"target":{
						"node":15,
						"path":"rotation"
					}
				},
				{
					"sampler":21,
					"target":{
						"node":14,
						"path":"rotation"
					}
				},
				{
					"sampler":22,
					"target":{
						"node":13,
						"path":"rotation"
					}
				},
				{
					"sampler":23,
					"target":{
						"node":12,
						"path":"rotation"
					}
				},
				{
					"sampler":24,
					"target":{
						"node":11,
						"path":"rotation"
					}
				},
				{
					"sampler":25,
					"target":{
						"node":22,
						"path":"rotation"
					}
				},
				{
					"sampler":26,
					"target":{
						"node":22,
						"path":"translation"
					}
				}
			],
			"name":"Move",
			"samplers":[
				{
					"input":33,
					"interpolation":"CUBICSPLINE",
					"output":34
				},
				{
					"input":33,
					"interpolation":"CUBICSPLINE",
					"output":35
				},
				{
					"input":33,
					"interpolation":"CUBICSPLINE",
					"output":36
				},
				{
					"input":33,
					"interpolation":"CUBICSPLINE",
					"output":37
				},
				{
					"input":33,
					"interpolation":"CUBICSPLINE",
					"output":38
				},
				{
					"input":33,
					"interpolation":"CUBICSPLINE",
					"output":39
				},
				{
					"input":33,
					"interpolation":"CUBICSPLINE",
					"output":40
				},
				{
					"input":33,
					"interpolation":"CUBICSPLINE",
					"output":41
				},
				{
					"input":33,
					"interpolation":"CUBICSPLINE",
					"output":42
				},
				{
					"input":33,
					"interpolation":"CUBICSPLINE",
					"output":43
				},
				{
					"input":33,
					"interpolation":"CUBICSPLINE",
					"output":44
				},
				{
					"input":33,
					"interpolation":"CUBICSPLINE",
					"output":45
				},
				{
					"input":33,
					"interpolation":"CUBICSPLINE",
					"output":46
				},
				{
					"input":33,
					"interpolation":"CUBICSPLINE",
					"output":47
				},
				{
					"input":33,
					"interpolation":"CUBICSPLINE",
					"output":48
				},
				{
					"input":33,
					"interpolation":"CUBICSPLINE",
					"output":49
				},
				{
					"input":33,
					"interpolation":"CUBICSPLINE",
					"output":50
				},
				{
					"input":33,
					"interpolation":"CUBICSPLINE",
					"output":51
				},
				{
					"input":33,
					"interpolation":"CUBICSPLINE",
					"output":52
				},
				{
					"input":33,
					"interpolation":"CUBICSPLINE",
					"output":53
				},
				{
					"input":33,
					"interpolation":"CUBICSPLINE",
					"output":54
				},
				{
					"input":33,
					"interpolation":"CUBICSPLINE",
					"output":55
				},
				{
					"input":33,
					"interpolation":"CUBICSPLINE",
					"output":56
				},
				{
					"input":33,
					"interpolation":"CUBICSPLINE",
					"output":57
				},
				{
					"input":33,
					"interpolation":"CUBICSPLINE",
					"output":58
				},
				{
					"input":33,
					"interpolation":"CUBICSPLINE",
					"output":59
				},
				{
					"input":33,
					"interpolation":"CUBICSPLINE",
					"output":60
				}
			]
		}
	],
	"materials":[
		{
			"doubleSided":true,
			"name":"Material.003",
			"pbrMetallicRoughness":{
				"baseColorTexture":{
					"index":0
				},
				"metallicFactor":0,
				"roughnessFactor":0.5
			}
		}
	],
	"meshes":[
		{
			"name":"mArrows",
			"primitives":[
				{
					"attributes":{
						"COLOR_0":0,
						"POSITION":1,
						"NORMAL":2,
						"TEXCOORD_0":3,
						"JOINTS_0":4,
						"WEIGHTS_0":5
					},
					"indices":6,
					"material":0
				}
			]
		}
	],
	"textures":[
		{
			"sampler":0,
			"source":0
		}
	],
	"images":[
		{
			"bufferView":7,
			"mimeType":"image/png",
			"name":"controls"
		}
	],
	"skins":[
		{
			"inverseBindMatrices":7,
			"joints":[
				23,
				10,
				9,
				8,
				7,
				6,
				5,
				4,
				3,
				2,
				1,
				0,
				21,
				20,
				19,
				18,
				17,
				16,
				15,
				14,
				13,
				12,
				11,
				22
			],
			"name":"Arrows"
		}
	],
	"accessors":[
		{
			"bufferView":0,
			"componentType":5123,
			"count":80,
			"normalized":true,
			"type":"VEC4"
		},
		{
			"bufferView":1,
			"componentType":5126,
			"count":80,
			"max":[
				16,
				16,
				0
			],
			"min":[
				-16,
				-16,
				-1
			],
			"type":"VEC3"
		},
		{
			"bufferView":2,
			"componentType":5126,
			"count":80,
			"type":"VEC3"
		},
		{
			"bufferView":3,
			"componentType":5126,
			"count":80,
			"type":"VEC2"
		},
		{
			"bufferView":4,
			"componentType":5121,
			"count":80,
			"type":"VEC4"
		},
		{
			"bufferView":5,
			"componentType":5126,
			"count":80,
			"type":"VEC4"
		},
		{
			"bufferView":6,
			"componentType":5123,
			"count":216,
			"type":"SCALAR"
		},
		{
			"bufferView":8,
			"componentType":5126,
			"count":24,
			"type":"MAT4"
		},
		{
			"bufferView":9,
			"componentType":5126,
			"count":1,
			"max":[
				0.016666666666666666
			],
			"min":[
				0.016666666666666666
			],
			"type":"SCALAR"
		},
		{
			"bufferView":10,
			"componentType":5126,
			"count":1,
			"type":"VEC4"
		},
		{
			"bufferView":11,
			"componentType":5126,
			"count":1,
			"type":"VEC4"
		},
		{
			"bufferView":12,
			"componentType":5126,
			"count":1,
			"type":"VEC4"
		},
		{
			"bufferView":13,
			"componentType":5126,
			"count":1,
			"type":"VEC4"
		},
		{
			"bufferView":14,
			"componentType":5126,
			"count":1,
			"type":"VEC4"
		},
		{
			"bufferView":15,
			"componentType":5126,
			"count":1,
			"type":"VEC4"
		},
		{
			"bufferView":16,
			"componentType":5126,
			"count":1,
			"type":"VEC4"
		},
		{
			"bufferView":17,
			"componentType":5126,
			"count":1,
			"type":"VEC4"
		},
		{
			"bufferView":18,
			"componentType":5126,
			"count":1,
			"type":"VEC4"
		},
		{
			"bufferView":19,
			"componentType":5126,
			"count":1,
			"type":"VEC4"
		},
		{
			"bufferView":20,
			"componentType":5126,
			"count":1,
			"type":"VEC4"
		},
		{
			"bufferView":21,
			"componentType":5126,
			"count":1,
			"type":"VEC4"
		},
		{
			"bufferView":22,
			"componentType":5126,
			"count":1,
			"type":"VEC4"
		},
		{
			"bufferView":23,
			"componentType":5126,
			"count":1,
			"type":"VEC4"
		},
		{
			"bufferView":24,
			"componentType":5126,
			"count":1,
			"type":"VEC4"
		},
		{
			"bufferView":25,
			"componentType":5126,
			"count":1,
			"type":"VEC4"
		},
		{
			"bufferView":26,
			"componentType":5126,
			"count":1,
			"type":"VEC4"
		},
		{
			"bufferView":27,
			"componentType":5126,
			"count":1,
			"type":"VEC4"
		},
		{
			"bufferView":28,
			"componentType":5126,
			"count":1,
			"type":"VEC4"
		},
		{
			"bufferView":29,
			"componentType":5126,
			"count":1,
			"type":"VEC4"
		},
		{
			"bufferView":30,
			"componentType":5126,
			"count":1,
			"type":"VEC4"
		},
		{
			"bufferView":31,
			"componentType":5126,
			"count":1,
			"type":"VEC4"
		},
		{
			"bufferView":32,
			"componentType":5126,
			"count":1,
			"type":"VEC4"
		},
		{
			"bufferView":33,
			"componentType":5126,
			"count":1,
			"type":"VEC4"
		},
		{
			"bufferView":34,
			"componentType":5126,
			"count":2,
			"max":[
				0.5
			],
			"min":[
				0
			],
			"type":"SCALAR"
		},
		{
			"bufferView":35,
			"componentType":5126,
			"count":6,
			"type":"VEC4"
		},
		{
			"bufferView":36,
			"componentType":5126,
			"count":6,
			"type":"VEC4"
		},
		{
			"bufferView":37,
			"componentType":5126,
			"count":6,
			"type":"VEC3"
		},
		{
			"bufferView":38,
			"componentType":5126,
			"count":6,
			"type":"VEC4"
		},
		{
			"bufferView":39,
			"componentType":5126,
			"count":6,
			"type":"VEC4"
		},
		{
			"bufferView":40,
			"componentType":5126,
			"count":6,
			"type":"VEC4"
		},
		{
			"bufferView":41,
			"componentType":5126,
			"count":6,
			"type":"VEC4"
		},
		{
			"bufferView":42,
			"componentType":5126,
			"count":6,
			"type":"VEC4"
		},
		{
			"bufferView":43,
			"componentType":5126,
			"count":6,
			"type":"VEC4"
		},
		{
			"bufferView":44,
			"componentType":5126,
			"count":6,
			"type":"VEC4"
		},
		{
			"bufferView":45,
			"componentType":5126,
			"count":6,
			"type":"VEC4"
		},
		{
			"bufferView":46,
			"componentType":5126,
			"count":6,
			"type":"VEC4"
		},
		{
			"bufferView":47,
			"componentType":5126,
			"count":6,
			"type":"VEC4"
		},
		{
			"bufferView":48,
			"componentType":5126,
			"count":6,
			"type":"VEC4"
		},
		{
			"bufferView":49,
			"componentType":5126,
			"count":6,
			"type":"VEC3"
		},
		{
			"bufferView":50,
			"componentType":5126,
			"count":6,
			"type":"VEC4"
		},
		{
			"bufferView":51,
			"componentType":5126,
			"count":6,
			"type":"VEC4"
		},
		{
			"bufferView":52,
			"componentType":5126,
			"count":6,
			"type":"VEC4"
		},
		{
			"bufferView":53,
			"componentType":5126,
			"count":6,
			"type":"VEC4"
		},
		{
			"bufferView":54,
			"componentType":5126,
			"count":6,
			"type":"VEC4"
		},
		{
			"bufferView":55,
			"componentType":5126,
			"count":6,
			"type":"VEC4"
		},
		{
			"bufferView":56,
			"componentType":5126,
			"count":6,
			"type":"VEC4"
		},
		{
			"bufferView":57,
			"componentType":5126,
			"count":6,
			"type":"VEC4"
		},
		{
			"bufferView":58,
			"componentType":5126,
			"count":6,
			"type":"VEC4"
		},
		{
			"bufferView":59,
			"componentType":5126,
			"count":6,
			"type":"VEC4"
		},
		{
			"bufferView":60,
			"componentType":5126,
			"count":6,
			"type":"VEC4"
		},
		{
			"bufferView":61,
			"componentType":5126,
			"count":6,
			"type":"VEC3"
		}
	],
	"bufferViews":[
		{
			"buffer":0,
			"byteLength":640,
			"byteOffset":0,
			"target":34962
		},
		{
			"buffer":0,
			"byteLength":960,
			"byteOffset":640,
			"target":34962
		},
		{
			"buffer":0,
			"byteLength":960,
			"byteOffset":1600,
			"target":34962
		},
		{
			"buffer":0,
			"byteLength":640,
			"byteOffset":2560,
			"target":34962
		},
		{
			"buffer":0,
			"byteLength":320,
			"byteOffset":3200,
			"target":34962
		},
		{
			"buffer":0,
			"byteLength":1280,
			"byteOffset":3520,
			"target":34962
		},
		{
			"buffer":0,
			"byteLength":432,
			"byteOffset":4800,
			"target":34963
		},
		{
			"buffer":0,
			"byteLength":212,
			"byteOffset":5232
		},
		{
			"buffer":0,
			"byteLength":1536,
			"byteOffset":5444
		},
		{
			"buffer":0,
			"byteLength":4,
			"byteOffset":6980
		},
		{
			"buffer":0,
			"byteLength":16,
			"byteOffset":6984
		},
		{
			"buffer":0,
			"byteLength":16,
			"byteOffset":7000
		},
		{
			"buffer":0,
			"byteLength":16,
			"byteOffset":7016
		},
		{
			"buffer":0,
			"byteLength":16,
			"byteOffset":7032
		},
		{
			"buffer":0,
			"byteLength":16,
			"byteOffset":7048
		},
		{
			"buffer":0,
			"byteLength":16,
			"byteOffset":7064
		},
		{
			"buffer":0,
			"byteLength":16,
			"byteOffset":7080
		},
		{
			"buffer":0,
			"byteLength":16,
			"byteOffset":7096
		},
		{
			"buffer":0,
			"byteLength":16,
			"byteOffset":7112
		},
		{
			"buffer":0,
			"byteLength":16,
			"byteOffset":7128
		},
		{
			"buffer":0,
			"byteLength":16,
			"byteOffset":7144
		},
		{
			"buffer":0,
			"byteLength":16,
			"byteOffset":7160
		},
		{
			"buffer":0,
			"byteLength":16,
			"byteOffset":7176
		},
		{
			"buffer":0,
			"byteLength":16,
			"byteOffset":7192
		},
		{
			"buffer":0,
			"byteLength":16,
			"byteOffset":7208
		},
		{
			"buffer":0,
			"byteLength":16,
			"byteOffset":7224
		},
		{
			"buffer":0,
			"byteLength":16,
			"byteOffset":7240
		},
		{
			"buffer":0,
			"byteLength":16,
			"byteOffset":7256
		},
		{
			"buffer":0,
			"byteLength":16,
			"byteOffset":7272
		},
		{
			"buffer":0,
			"byteLength":16,
			"byteOffset":7288
		},
		{
			"buffer":0,
			"byteLength":16,
			"byteOffset":7304
		},
		{
			"buffer":0,
			"byteLength":16,
			"byteOffset":7320
		},
		{
			"buffer":0,
			"byteLength":16,
			"byteOffset":7336
		},
		{
			"buffer":0,
			"byteLength":16,
			"byteOffset":7352
		},
		{
			"buffer":0,
			"byteLength":8,
			"byteOffset":7368
		},
		{
			"buffer":0,
			"byteLength":96,
			"byteOffset":7376
		},
		{
			"buffer":0,
			"byteLength":96,
			"byteOffset":7472
		},
		{
			"buffer":0,
			"byteLength":72,
			"byteOffset":7568
		},
		{
			"buffer":0,
			"byteLength":96,
			"byteOffset":7640
		},
		{
			"buffer":0,
			"byteLength":96,
			"byteOffset":7736
		},
		{
			"buffer":0,
			"byteLength":96,
			"byteOffset":7832
		},
		{
			"buffer":0,
			"byteLength":96,
			"byteOffset":7928
		},
		{
			"buffer":0,
			"byteLength":96,
			"byteOffset":8024
		},
		{
			"buffer":0,
			"byteLength":96,
			"byteOffset":8120
		},
		{
			"buffer":0,
			"byteLength":96,
			"byteOffset":8216
		},
		{
			"buffer":0,
			"byteLength":96,
			"byteOffset":8312
		},
		{
			"buffer":0,
			"byteLength":96,
			"byteOffset":8408
		},
		{
			"buffer":0,
			"byteLength":96,
			"byteOffset":8504
		},
		{
			"buffer":0,
			"byteLength":96,
			"byteOffset":8600
		},
		{
			"buffer":0,
			"byteLength":72,
			"byteOffset":8696
		},
		{
			"buffer":0,
			"byteLength":96,
			"byteOffset":8768
		},
		{
			"buffer":0,
			"byteLength":96,
			"byteOffset":8864
		},
		{
			"buffer":0,
			"byteLength":96,
			"byteOffset":8960
		},
		{
			"buffer":0,
			"byteLength":96,
			"byteOffset":9056
		},
		{
			"buffer":0,
			"byteLength":96,
			"byteOffset":9152
		},
		{
			"buffer":0,
			"byteLength":96,
			"byteOffset":9248
		},
		{
			"buffer":0,
			"byteLength":96,
			"byteOffset":9344
		},
		{
			"buffer":0,
			"byteLength":96,
			"byteOffset":9440
		},
		{
			"buffer":0,
			"byteLength":96,
			"byteOffset":9536
		},
		{
			"buffer":0,
			"byteLength":96,
			"byteOffset":9632
		},
		{
			"buffer":0,
			"byteLength":96,
			"byteOffset":9728
		},
		{
			"buffer":0,
			"byteLength":72,
			"byteOffset":9824
		}
	],
	"samplers":[
		{
			"magFilter":9728,
			"minFilter":9984
		}
	],
	"buffers":[
		{
			"byteLength":9896,
			"uri":"data:application/octet-stream;base64,"
		}
	]
}
