{
	"asset":{
		"generator":"Khronos glTF Blender I/O v3.6.28",
		"version":"2.0"
	},
	"scene":0,
	"scenes":[
		{
			"name":"Scene",
			"nodes":[
				10
			]
		}
	],
	"nodes":[
		{
			"name":"bPonytail.L",
			"rotation":[
				0.00662729237228632,
				-0.03153142333030701,
				-0.9792096614837646,
				0.200275719165802
			],
			"scale":[
				0.9999983906745911,
				0.9999999403953552,
				0.9999999403953552
			],
			"translation":[
				0.8107858896255493,
				1.0156159400939941,
				-0.7681128978729248
			]
		},
		{
			"name":"bPonytail.R",
			"rotation":[
				0.00662729237228632,
				0.03153142333030701,
				0.9792096614837646,
				0.200275719165802
			],
			"scale":[
				0.9999983906745911,
				0.9999999403953552,
				0.9999999403953552
			],
			"translation":[
				-0.8107858896255493,
				1.0156159400939941,
				-0.7681128978729248
			]
		},
		{
			"children":[
				0,
				1
			],
			"name":"bHead",
			"translation":[
				0,
				0.8396298289299011,
				0
			]
		},
		{
			"name":"bArm.L",
			"rotation":[
				0.04975598677992821,
				-0.18258315324783325,
				-0.9496066570281982,
				0.2498699128627777
			],
			"scale":[
				1.0000001192092896,
				1.0000001192092896,
				1.0000001192092896
			],
			"translation":[
				0.2737341523170471,
				0.6288356184959412,
				0.05077158287167549
			]
		},
		{
			"name":"bLeg.L",
			"rotation":[
				3.5493481846060604e-05,
				-0.0319061279296875,
				0.9992147088050842,
				0.023494403809309006
			],
			"scale":[
				1.000003457069397,
				0.9999999403953552,
				1.0000061988830566
			],
			"translation":[
				0.21135996282100677,
				-0.1569122076034546,
				0.17069168388843536
			]
		},
		{
			"name":"bArm.R",
			"rotation":[
				0.09913107752799988,
				0.43711328506469727,
				0.5523568391799927,
				0.7028563022613525
			],
			"scale":[
				0.9999999403953552,
				0.9999999403953552,
				1
			],
			"translation":[
				-0.3039928078651428,
				0.6739934086799622,
				2.533322529529869e-08
			]
		},
		{
			"name":"bLeg.R",
			"rotation":[
				3.5493481846060604e-05,
				0.0319061279296875,
				-0.9992147088050842,
				0.023494403809309006
			],
			"scale":[
				1.000003457069397,
				0.9999999403953552,
				1.0000061988830566
			],
			"translation":[
				-0.21135996282100677,
				-0.1569122076034546,
				0.17069168388843536
			]
		},
		{
			"children":[
				2,
				3,
				4,
				5,
				6
			],
			"name":"bBody",
			"translation":[
				0,
				0.9626215100288391,
				0
			]
		},
		{
			"children":[
				7
			],
			"name":"bRoot"
		},
		{
			"mesh":0,
			"name":"bBody",
			"skin":0
		},
		{
			"children":[
				9,
				8
			],
			"name":"Miku"
		}
	],
	"animations":[
		{
			"channels":[
				{
					"sampler":0,
					"target":{
						"node":2,
						"path":"rotation"
					}
				},
				{
					"sampler":1,
					"target":{
						"node":3,
						"path":"rotation"
					}
				},
				{
					"sampler":2,
					"target":{
						"node":5,
						"path":"rotation"
					}
				}
			],
			"name":"headbang",
			"samplers":[
				{
					"input":15,
					"interpolation":"CUBICSPLINE",
					"output":16
				},
				{
					"input":15,
					"interpolation":"CUBICSPLINE",
					"output":17
				},
				{
					"input":15,
					"interpolation":"CUBICSPLINE",
					"output":18
				}
			]
		},
		{
			"channels":[
				{
					"sampler":0,
					"target":{
						"node":0,
						"path":"rotation"
					}
				},
				{
					"sampler":1,
					"target":{
						"node":4,
						"path":"rotation"
					}
				},
				{
					"sampler":2,
					"target":{
						"node":7,
						"path":"rotation"
					}
				},
				{
					"sampler":3,
					"target":{
						"node":2,
						"path":"rotation"
					}
				},
				{
					"sampler":4,
					"target":{
						"node":1,
						"path":"rotation"
					}
				},
				{
					"sampler":5,
					"target":{
						"node":8,
						"path":"rotation"
					}
				},
				{
					"sampler":6,
					"target":{
						"node":3,
						"path":"rotation"
					}
				},
				{
					"sampler":7,
					"target":{
						"node":6,
						"path":"rotation"
					}
				},
				{
					"sampler":8,
					"target":{
						"node":5,
						"path":"rotation"
					}
				}
			],
			"name":"tpose",
			"samplers":[
				{
					"input":19,
					"interpolation":"LINEAR",
					"output":20
				},
				{
					"input":19,
					"interpolation":"LINEAR",
					"output":21
				},
				{
					"input":19,
					"interpolation":"LINEAR",
					"output":22
				},
				{
					"input":19,
					"interpolation":"LINEAR",
					"output":23
				},
				{
					"input":19,
					"interpolation":"LINEAR",
					"output":24
				},
				{
					"input":19,
					"interpolation":"LINEAR",
					"output":25
				},
				{
					"input":19,
					"interpolation":"LINEAR",
					"output":26
				},
				{
					"input":19,
					"interpolation":"LINEAR",
					"output":27
				},
				{
					"input":19,
					"interpolation":"LINEAR",
					"output":28
				}
			]
		},
		{
			"channels":[
				{
					"sampler":0,
					"target":{
						"node":7,
						"path":"translation"
					}
				},
				{
					"sampler":1,
					"target":{
						"node":7,
						"path":"scale"
					}
				},
				{
					"sampler":2,
					"target":{
						"node":2,
						"path":"rotation"
					}
				},
				{
					"sampler":3,
					"target":{
						"node":0,
						"path":"rotation"
					}
				},
				{
					"sampler":4,
					"target":{
						"node":1,
						"path":"rotation"
					}
				},
				{
					"sampler":5,
					"target":{
						"node":3,
						"path":"rotation"
					}
				},
				{
					"sampler":6,
					"target":{
						"node":4,
						"path":"rotation"
					}
				},
				{
					"sampler":7,
					"target":{
						"node":5,
						"path":"rotation"
					}
				},
				{
					"sampler":8,
					"target":{
						"node":6,
						"path":"rotation"
					}
				},
				{
					"sampler":9,
					"target":{
						"node":7,
						"path":"rotation"
					}
				}
			],
			"name":"unbalanced",
			"samplers":[
				{
					"input":29,
					"interpolation":"CUBICSPLINE",
					"output":30
				},
				{
					"input":29,
					"interpolation":"CUBICSPLINE",
					"output":31
				},
				{
					"input":32,
					"interpolation":"CUBICSPLINE",
					"output":33
				},
				{
					"input":34,
					"interpolation":"CUBICSPLINE",
					"output":35
				},
				{
					"input":36,
					"interpolation":"CUBICSPLINE",
					"output":37
				},
				{
					"input":38,
					"interpolation":"CUBICSPLINE",
					"output":39
				},
				{
					"input":40,
					"interpolation":"CUBICSPLINE",
					"output":41
				},
				{
					"input":42,
					"interpolation":"CUBICSPLINE",
					"output":43
				},
				{
					"input":44,
					"interpolation":"CUBICSPLINE",
					"output":45
				},
				{
					"input":46,
					"interpolation":"LINEAR",
					"output":47
				}
			]
		},
		{
			"channels":[
				{
					"sampler":0,
					"target":{
						"node":7,
						"path":"rotation"
					}
				},
				{
					"sampler":1,
					"target":{
						"node":4,
						"path":"rotation"
					}
				},
				{
					"sampler":2,
					"target":{
						"node":5,
						"path":"rotation"
					}
				},
				{
					"sampler":3,
					"target":{
						"node":6,
						"path":"rotation"
					}
				},
				{
					"sampler":4,
					"target":{
						"node":0,
						"path":"rotation"
					}
				},
				{
					"sampler":5,
					"target":{
						"node":1,
						"path":"rotation"
					}
				},
				{
					"sampler":6,
					"target":{
						"node":3,
						"path":"rotation"
					}
				}
			],
			"name":"walk",
			"samplers":[
				{
					"input":48,
					"interpolation":"CUBICSPLINE",
					"output":49
				},
				{
					"input":50,
					"interpolation":"CUBICSPLINE",
					"output":51
				},
				{
					"input":48,
					"interpolation":"CUBICSPLINE",
					"output":52
				},
				{
					"input":53,
					"interpolation":"CUBICSPLINE",
					"output":54
				},
				{
					"input":48,
					"interpolation":"CUBICSPLINE",
					"output":55
				},
				{
					"input":48,
					"interpolation":"CUBICSPLINE",
					"output":56
				},
				{
					"input":48,
					"interpolation":"CUBICSPLINE",
					"output":57
				}
			]
		},
		{
			"channels":[
				{
					"sampler":0,
					"target":{
						"node":5,
						"path":"rotation"
					}
				},
				{
					"sampler":1,
					"target":{
						"node":0,
						"path":"rotation"
					}
				},
				{
					"sampler":2,
					"target":{
						"node":1,
						"path":"rotation"
					}
				},
				{
					"sampler":3,
					"target":{
						"node":2,
						"path":"rotation"
					}
				}
			],
			"name":"wave",
			"samplers":[
				{
					"input":58,
					"interpolation":"LINEAR",
					"output":59
				},
				{
					"input":58,
					"interpolation":"CUBICSPLINE",
					"output":60
				},
				{
					"input":58,
					"interpolation":"CUBICSPLINE",
					"output":61
				},
				{
					"input":58,
					"interpolation":"CUBICSPLINE",
					"output":62
				}
			]
		}
	],
	"materials":[
		{
			"doubleSided":true,
			"name":"Mdl_0_Mtl_S013_all",
			"pbrMetallicRoughness":{
				"baseColorTexture":{
					"index":0
				},
				"metallicFactor":0
			}
		},
		{
			"doubleSided":true,
			"name":"Mdl_0_Mtl_all_alpha",
			"pbrMetallicRoughness":{
				"baseColorTexture":{
					"index":1
				},
				"metallicFactor":0
			}
		}
	],
	"meshes":[
		{
			"name":"mikumesh",
			"primitives":[
				{
					"attributes":{
						"COLOR_0":0,
						"POSITION":1,
						"NORMAL":2,
						"TEXCOORD_0":3,
						"JOINTS_0":4,
						"WEIGHTS_0":5
					},
					"indices":6,
					"material":0
				},
				{
					"attributes":{
						"COLOR_0":7,
						"POSITION":8,
						"NORMAL":9,
						"TEXCOORD_0":10,
						"JOINTS_0":11,
						"WEIGHTS_0":12
					},
					"indices":13,
					"material":1
				}
			]
		}
	],
	"textures":[
		{
			"sampler":0,
			"source":0
		},
		{
			"sampler":0,
			"source":1
		}
	],
	"images":[
		{
			"bufferView":7,
			"mimeType":"image/png",
			"name":"roomitems_013_color"
		},
		{
			"bufferView":15,
			"mimeType":"image/png",
			"name":"roomitems_013_alpha"
		}
	],
	"skins":[
		{
			"inverseBindMatrices":14,
			"joints":[
				8,
				7,
				2,
				0,
				1,
				3,
				4,
				5,
				6
			],
			"name":"Miku"
		}
	],
	"accessors":[
		{
			"bufferView":0,
			"componentType":5123,
			"count":1410,
			"normalized":true,
			"type":"VEC4"
		},
		{
			"bufferView":1,
			"componentType":5126,
			"count":1410,
			"max":[
				1.445448398590088,
				3.2670068740844727,
				1.203319787979126
			],
			"min":[
				-1.5729213953018188,
				0.01279306411743164,
				-1.0125311613082886
			],
			"type":"VEC3"
		},
		{
			"bufferView":2,
			"componentType":5126,
			"count":1410,
			"type":"VEC3"
		},
		{
			"bufferView":3,
			"componentType":5126,
			"count":1410,
			"type":"VEC2"
		},
		{
			"bufferView":4,
			"componentType":5121,
			"count":1410,
			"type":"VEC4"
		},
		{
			"bufferView":5,
			"componentType":5126,
			"count":1410,
			"type":"VEC4"
		},
		{
			"bufferView":6,
			"componentType":5123,
			"count":4206,
			"type":"SCALAR"
		},
		{
			"bufferView":8,
			"componentType":5123,
			"count":134,
			"normalized":true,
			"type":"VEC4"
		},
		{
			"bufferView":9,
			"componentType":5126,
			"count":134,
			"max":[
				0.4607994556427002,
				1.7785669565200806,
				0.505486786365509
			],
			"min":[
				-0.45260944962501526,
				0.20866906642913818,
				-0.3166302442550659
			],
			"type":"VEC3"
		},
		{
			"bufferView":10,
			"componentType":5126,
			"count":134,
			"type":"VEC3"
		},
		{
			"bufferView":11,
			"componentType":5126,
			"count":134,
			"type":"VEC2"
		},
		{
			"bufferView":12,
			"componentType":5121,
			"count":134,
			"type":"VEC4"
		},
		{
			"bufferView":13,
			"componentType":5126,
			"count":134,
			"type":"VEC4"
		},
		{
			"bufferView":14,
			"componentType":5123,
			"count":288,
			"type":"SCALAR"
		},
		{
			"bufferView":16,
			"componentType":5126,
			"count":9,
			"type":"MAT4"
		},
		{
			"bufferView":17,
			"componentType":5126,
			"count":3,
			"max":[
				0.3333333333333333
			],
			"min":[
				0
			],
			"type":"SCALAR"
		},
		{
			"bufferView":18,
			"componentType":5126,
			"count":9,
			"type":"VEC4"
		},
		{
			"bufferView":19,
			"componentType":5126,
			"count":9,
			"type":"VEC4"
		},
		{
			"bufferView":20,
			"componentType":5126,
			"count":9,
			"type":"VEC4"
		},
		{
			"bufferView":21,
			"componentType":5126,
			"count":1,
			"max":[
				0
			],
			"min":[
				0
			],
			"type":"SCALAR"
		},
		{
			"bufferView":22,
			"componentType":5126,
			"count":1,
			"type":"VEC4"
		},
		{
			"bufferView":23,
			"componentType":5126,
			"count":1,
			"type":"VEC4"
		},
		{
			"bufferView":24,
			"componentType":5126,
			"count":1,
			"type":"VEC4"
		},
		{
			"bufferView":25,
			"componentType":5126,
			"count":1,
			"type":"VEC4"
		},
		{
			"bufferView":26,
			"componentType":5126,
			"count":1,
			"type":"VEC4"
		},
		{
			"bufferView":27,
			"componentType":5126,
			"count":1,
			"type":"VEC4"
		},
		{
			"bufferView":28,
			"componentType":5126,
			"count":1,
			"type":"VEC4"
		},
		{
			"bufferView":29,
			"componentType":5126,
			"count":1,
			"type":"VEC4"
		},
		{
			"bufferView":30,
			"componentType":5126,
			"count":1,
			"type":"VEC4"
		},
		{
			"bufferView":31,
			"componentType":5126,
			"count":2,
			"max":[
				2
			],
			"min":[
				0
			],
			"type":"SCALAR"
		},
		{
			"bufferView":32,
			"componentType":5126,
			"count":6,
			"type":"VEC3"
		},
		{
			"bufferView":33,
			"componentType":5126,
			"count":6,
			"type":"VEC3"
		},
		{
			"bufferView":34,
			"componentType":5126,
			"count":6,
			"max":[
				2
			],
			"min":[
				0
			],
			"type":"SCALAR"
		},
		{
			"bufferView":35,
			"componentType":5126,
			"count":18,
			"type":"VEC4"
		},
		{
			"bufferView":36,
			"componentType":5126,
			"count":3,
			"max":[
				2
			],
			"min":[
				0
			],
			"type":"SCALAR"
		},
		{
			"bufferView":37,
			"componentType":5126,
			"count":9,
			"type":"VEC4"
		},
		{
			"bufferView":38,
			"componentType":5126,
			"count":5,
			"max":[
				2
			],
			"min":[
				0
			],
			"type":"SCALAR"
		},
		{
			"bufferView":39,
			"componentType":5126,
			"count":15,
			"type":"VEC4"
		},
		{
			"bufferView":40,
			"componentType":5126,
			"count":6,
			"max":[
				2
			],
			"min":[
				0
			],
			"type":"SCALAR"
		},
		{
			"bufferView":41,
			"componentType":5126,
			"count":18,
			"type":"VEC4"
		},
		{
			"bufferView":42,
			"componentType":5126,
			"count":4,
			"max":[
				2
			],
			"min":[
				0
			],
			"type":"SCALAR"
		},
		{
			"bufferView":43,
			"componentType":5126,
			"count":12,
			"type":"VEC4"
		},
		{
			"bufferView":44,
			"componentType":5126,
			"count":4,
			"max":[
				2
			],
			"min":[
				0
			],
			"type":"SCALAR"
		},
		{
			"bufferView":45,
			"componentType":5126,
			"count":12,
			"type":"VEC4"
		},
		{
			"bufferView":46,
			"componentType":5126,
			"count":5,
			"max":[
				2
			],
			"min":[
				0
			],
			"type":"SCALAR"
		},
		{
			"bufferView":47,
			"componentType":5126,
			"count":15,
			"type":"VEC4"
		},
		{
			"bufferView":48,
			"componentType":5126,
			"count":121,
			"max":[
				2
			],
			"min":[
				0
			],
			"type":"SCALAR"
		},
		{
			"bufferView":49,
			"componentType":5126,
			"count":121,
			"type":"VEC4"
		},
		{
			"bufferView":50,
			"componentType":5126,
			"count":3,
			"max":[
				1
			],
			"min":[
				0
			],
			"type":"SCALAR"
		},
		{
			"bufferView":51,
			"componentType":5126,
			"count":9,
			"type":"VEC4"
		},
		{
			"bufferView":52,
			"componentType":5126,
			"count":3,
			"max":[
				0.5
			],
			"min":[
				0
			],
			"type":"SCALAR"
		},
		{
			"bufferView":53,
			"componentType":5126,
			"count":9,
			"type":"VEC4"
		},
		{
			"bufferView":54,
			"componentType":5126,
			"count":9,
			"type":"VEC4"
		},
		{
			"bufferView":55,
			"componentType":5126,
			"count":4,
			"max":[
				1
			],
			"min":[
				0
			],
			"type":"SCALAR"
		},
		{
			"bufferView":56,
			"componentType":5126,
			"count":12,
			"type":"VEC4"
		},
		{
			"bufferView":57,
			"componentType":5126,
			"count":9,
			"type":"VEC4"
		},
		{
			"bufferView":58,
			"componentType":5126,
			"count":9,
			"type":"VEC4"
		},
		{
			"bufferView":59,
			"componentType":5126,
			"count":9,
			"type":"VEC4"
		},
		{
			"bufferView":60,
			"componentType":5126,
			"count":3,
			"max":[
				0.5
			],
			"min":[
				0
			],
			"type":"SCALAR"
		},
		{
			"bufferView":61,
			"componentType":5126,
			"count":3,
			"type":"VEC4"
		},
		{
			"bufferView":62,
			"componentType":5126,
			"count":9,
			"type":"VEC4"
		},
		{
			"bufferView":63,
			"componentType":5126,
			"count":9,
			"type":"VEC4"
		},
		{
			"bufferView":64,
			"componentType":5126,
			"count":9,
			"type":"VEC4"
		}
	],
	"bufferViews":[
		{
			"buffer":0,
			"byteLength":11280,
			"byteOffset":0,
			"target":34962
		},
		{
			"buffer":0,
			"byteLength":16920,
			"byteOffset":11280,
			"target":34962
		},
		{
			"buffer":0,
			"byteLength":16920,
			"byteOffset":28200,
			"target":34962
		},
		{
			"buffer":0,
			"byteLength":11280,
			"byteOffset":45120,
			"target":34962
		},
		{
			"buffer":0,
			"byteLength":5640,
			"byteOffset":56400,
			"target":34962
		},
		{
			"buffer":0,
			"byteLength":22560,
			"byteOffset":62040,
			"target":34962
		},
		{
			"buffer":0,
			"byteLength":8412,
			"byteOffset":84600,
			"target":34963
		},
		{
			"buffer":0,
			"byteLength":39839,
			"byteOffset":93012
		},
		{
			"buffer":0,
			"byteLength":1072,
			"byteOffset":132852,
			"target":34962
		},
		{
			"buffer":0,
			"byteLength":1608,
			"byteOffset":133924,
			"target":34962
		},
		{
			"buffer":0,
			"byteLength":1608,
			"byteOffset":135532,
			"target":34962
		},
		{
			"buffer":0,
			"byteLength":1072,
			"byteOffset":137140,
			"target":34962
		},
		{
			"buffer":0,
			"byteLength":536,
			"byteOffset":138212,
			"target":34962
		},
		{
			"buffer":0,
			"byteLength":2144,
			"byteOffset":138748,
			"target":34962
		},
		{
			"buffer":0,
			"byteLength":576,
			"byteOffset":140892,
			"target":34963
		},
		{
			"buffer":0,
			"byteLength":4907,
			"byteOffset":141468
		},
		{
			"buffer":0,
			"byteLength":576,
			"byteOffset":146376
		},
		{
			"buffer":0,
			"byteLength":12,
			"byteOffset":146952
		},
		{
			"buffer":0,
			"byteLength":144,
			"byteOffset":146964
		},
		{
			"buffer":0,
			"byteLength":144,
			"byteOffset":147108
		},
		{
			"buffer":0,
			"byteLength":144,
			"byteOffset":147252
		},
		{
			"buffer":0,
			"byteLength":4,
			"byteOffset":147396
		},
		{
			"buffer":0,
			"byteLength":16,
			"byteOffset":147400
		},
		{
			"buffer":0,
			"byteLength":16,
			"byteOffset":147416
		},
		{
			"buffer":0,
			"byteLength":16,
			"byteOffset":147432
		},
		{
			"buffer":0,
			"byteLength":16,
			"byteOffset":147448
		},
		{
			"buffer":0,
			"byteLength":16,
			"byteOffset":147464
		},
		{
			"buffer":0,
			"byteLength":16,
			"byteOffset":147480
		},
		{
			"buffer":0,
			"byteLength":16,
			"byteOffset":147496
		},
		{
			"buffer":0,
			"byteLength":16,
			"byteOffset":147512
		},
		{
			"buffer":0,
			"byteLength":16,
			"byteOffset":147528
		},
		{
			"buffer":0,
			"byteLength":8,
			"byteOffset":147544
		},
		{
			"buffer":0,
			"byteLength":72,
			"byteOffset":147552
		},
		{
			"buffer":0,
			"byteLength":72,
			"byteOffset":147624
		},
		{
			"buffer":0,
			"byteLength":24,
			"byteOffset":147696
		},
		{
			"buffer":0,
			"byteLength":288,
			"byteOffset":147720
		},
		{
			"buffer":0,
			"byteLength":12,
			"byteOffset":148008
		},
		{
			"buffer":0,
			"byteLength":144,
			"byteOffset":148020
		},
		{
			"buffer":0,
			"byteLength":20,
			"byteOffset":148164
		},
		{
			"buffer":0,
			"byteLength":240,
			"byteOffset":148184
		},
		{
			"buffer":0,
			"byteLength":24,
			"byteOffset":148424
		},
		{
			"buffer":0,
			"byteLength":288,
			"byteOffset":148448
		},
		{
			"buffer":0,
			"byteLength":16,
			"byteOffset":148736
		},
		{
			"buffer":0,
			"byteLength":192,
			"byteOffset":148752
		},
		{
			"buffer":0,
			"byteLength":16,
			"byteOffset":148944
		},
		{
			"buffer":0,
			"byteLength":192,
			"byteOffset":148960
		},
		{
			"buffer":0,
			"byteLength":20,
			"byteOffset":149152
		},
		{
			"buffer":0,
			"byteLength":240,
			"byteOffset":149172
		},
		{
			"buffer":0,
			"byteLength":484,
			"byteOffset":149412
		},
		{
			"buffer":0,
			"byteLength":1936,
			"byteOffset":149896
		},
		{
			"buffer":0,
			"byteLength":12,
			"byteOffset":151832
		},
		{
			"buffer":0,
			"byteLength":144,
			"byteOffset":151844
		},
		{
			"buffer":0,
			"byteLength":12,
			"byteOffset":151988
		},
		{
			"buffer":0,
			"byteLength":144,
			"byteOffset":152000
		},
		{
			"buffer":0,
			"byteLength":144,
			"byteOffset":152144
		},
		{
			"buffer":0,
			"byteLength":16,
			"byteOffset":152288
		},
		{
			"buffer":0,
			"byteLength":192,
			"byteOffset":152304
		},
		{
			"buffer":0,
			"byteLength":144,
			"byteOffset":152496
		},
		{
			"buffer":0,
			"byteLength":144,
			"byteOffset":152640
		},
		{
			"buffer":0,
			"byteLength":144,
			"byteOffset":152784
		},
		{
			"buffer":0,
			"byteLength":12,
			"byteOffset":152928
		},
		{
			"buffer":0,
			"byteLength":48,
			"byteOffset":152940
		},
		{
			"buffer":0,
			"byteLength":144,
			"byteOffset":152988
		},
		{
			"buffer":0,
			"byteLength":144,
			"byteOffset":153132
		},
		{
			"buffer":0,
			"byteLength":144,
			"byteOffset":153276
		}
	],
	"samplers":[
		{
			"magFilter":9729,
			"minFilter":9987
		}
	],
	"buffers":[
		{
			"byteLength":153420,
			"uri":"data:application/octet-stream;base64,"
		}
	]
}
