{
	"asset":{
		"generator":"Khronos glTF Blender I/O v3.6.28",
		"version":"2.0"
	},
	"scene":0,
	"scenes":[
		{
			"name":"Scene",
			"nodes":[
				9
			]
		}
	],
	"nodes":[
		{
			"name":"bFootR",
			"rotation":[
				5.212164637669048e-07,
				3.526290868194337e-07,
				-0.7071067690849304,
				0.7071067690849304
			],
			"translation":[
				0.10000000149011612,
				0.10000000894069672,
				2.384185471271394e-08
			]
		},
		{
			"name":"bFootL",
			"rotation":[
				-2.374267609184244e-07,
				6.883940528723542e-08,
				0.7071067690849304,
				0.7071067690849304
			],
			"translation":[
				-0.10000000149011612,
				0.10000000894069672,
				-2.384185471271394e-08
			]
		},
		{
			"children":[
				0,
				1
			],
			"name":"bRoot",
			"rotation":[
				-2.980232594040899e-08,
				1.1920926112907182e-07,
				0,
				1
			],
			"scale":[
				1,
				0.9999999403953552,
				0.9999999403953552
			]
		},
		{
			"name":"bArm",
			"rotation":[
				-1.0496218294520077e-07,
				4.916165607937728e-08,
				0.9055894613265991,
				0.4241553843021393
			],
			"scale":[
				1.0000001192092896,
				1,
				1
			],
			"translation":[
				-0.20000000298023224,
				0.7000000476837158,
				0
			]
		},
		{
			"name":"bHead",
			"rotation":[
				1.2643617708363308e-08,
				9.693734170923562e-08,
				0.7071066498756409,
				0.70710688829422
			],
			"translation":[
				-0.20000000298023224,
				0.10000006854534149,
				3.099416545637723e-08
			]
		},
		{
			"name":"bGun",
			"rotation":[
				-4.559314758416713e-14,
				-7.947281233100512e-08,
				-1.9371509552001953e-07,
				1
			],
			"translation":[
				0.09999987483024597,
				-0.08355757594108582,
				-1.5497059635549704e-08
			]
		},
		{
			"children":[
				4,
				5
			],
			"name":"bAim",
			"rotation":[
				-5.4790454839803715e-08,
				-5.479047260337211e-08,
				-0.7071065902709961,
				0.7071069478988647
			],
			"translation":[
				-0.10000000149011612,
				0.5,
				0
			]
		},
		{
			"children":[
				3,
				6
			],
			"name":"bBody",
			"translation":[
				0.10000000149011612,
				0.5,
				0
			]
		},
		{
			"mesh":0,
			"name":"footL.002",
			"skin":0
		},
		{
			"children":[
				8,
				2,
				7
			],
			"name":"Kid"
		}
	],
	"animations":[
		{
			"channels":[
				{
					"sampler":0,
					"target":{
						"node":2,
						"path":"rotation"
					}
				},
				{
					"sampler":1,
					"target":{
						"node":0,
						"path":"rotation"
					}
				},
				{
					"sampler":2,
					"target":{
						"node":1,
						"path":"rotation"
					}
				},
				{
					"sampler":3,
					"target":{
						"node":7,
						"path":"rotation"
					}
				},
				{
					"sampler":4,
					"target":{
						"node":3,
						"path":"rotation"
					}
				},
				{
					"sampler":5,
					"target":{
						"node":6,
						"path":"rotation"
					}
				},
				{
					"sampler":6,
					"target":{
						"node":4,
						"path":"rotation"
					}
				},
				{
					"sampler":7,
					"target":{
						"node":5,
						"path":"rotation"
					}
				}
			],
			"name":"KidAction",
			"samplers":[
				{
					"input":8,
					"interpolation":"CUBICSPLINE",
					"output":9
				},
				{
					"input":8,
					"interpolation":"CUBICSPLINE",
					"output":10
				},
				{
					"input":8,
					"interpolation":"CUBICSPLINE",
					"output":11
				},
				{
					"input":8,
					"interpolation":"CUBICSPLINE",
					"output":12
				},
				{
					"input":8,
					"interpolation":"CUBICSPLINE",
					"output":13
				},
				{
					"input":14,
					"interpolation":"CUBICSPLINE",
					"output":15
				},
				{
					"input":8,
					"interpolation":"CUBICSPLINE",
					"output":16
				},
				{
					"input":8,
					"interpolation":"CUBICSPLINE",
					"output":17
				}
			]
		},
		{
			"channels":[
				{
					"sampler":0,
					"target":{
						"node":0,
						"path":"translation"
					}
				},
				{
					"sampler":1,
					"target":{
						"node":0,
						"path":"rotation"
					}
				},
				{
					"sampler":2,
					"target":{
						"node":1,
						"path":"translation"
					}
				},
				{
					"sampler":3,
					"target":{
						"node":1,
						"path":"rotation"
					}
				},
				{
					"sampler":4,
					"target":{
						"node":3,
						"path":"rotation"
					}
				},
				{
					"sampler":5,
					"target":{
						"node":2,
						"path":"rotation"
					}
				},
				{
					"sampler":6,
					"target":{
						"node":2,
						"path":"translation"
					}
				}
			],
			"name":"Walk_Cursed",
			"samplers":[
				{
					"input":18,
					"interpolation":"CUBICSPLINE",
					"output":19
				},
				{
					"input":18,
					"interpolation":"CUBICSPLINE",
					"output":20
				},
				{
					"input":21,
					"interpolation":"CUBICSPLINE",
					"output":22
				},
				{
					"input":21,
					"interpolation":"CUBICSPLINE",
					"output":23
				},
				{
					"input":24,
					"interpolation":"CUBICSPLINE",
					"output":25
				},
				{
					"input":8,
					"interpolation":"STEP",
					"output":26
				},
				{
					"input":8,
					"interpolation":"STEP",
					"output":27
				}
			]
		}
	],
	"materials":[
		{
			"alphaCutoff":0.5,
			"alphaMode":"MASK",
			"doubleSided":true,
			"name":"Material.001",
			"pbrMetallicRoughness":{
				"baseColorTexture":{
					"index":0
				},
				"metallicFactor":0,
				"roughnessFactor":0.5
			}
		}
	],
	"meshes":[
		{
			"name":"Plane.023",
			"primitives":[
				{
					"attributes":{
						"COLOR_0":0,
						"POSITION":1,
						"NORMAL":2,
						"TEXCOORD_0":3,
						"JOINTS_0":4,
						"WEIGHTS_0":5
					},
					"indices":6,
					"material":0
				}
			]
		}
	],
	"textures":[
		{
			"sampler":0,
			"source":0
		}
	],
	"images":[
		{
			"bufferView":7,
			"mimeType":"image/png",
			"name":"sprPlayerIdle_3"
		}
	],
	"skins":[
		{
			"inverseBindMatrices":7,
			"joints":[
				2,
				0,
				1,
				7,
				3,
				6,
				4,
				5
			],
			"name":"Kid"
		}
	],
	"accessors":[
		{
			"bufferView":0,
			"componentType":5123,
			"count":438,
			"normalized":true,
			"type":"VEC4"
		},
		{
			"bufferView":1,
			"componentType":5126,
			"count":438,
			"max":[
				1.100000023841858,
				2.1000001430511475,
				0.019999999552965164
			],
			"min":[
				-1.2000001668930054,
				0,
				-0.009999999776482582
			],
			"type":"VEC3"
		},
		{
			"bufferView":2,
			"componentType":5126,
			"count":438,
			"type":"VEC3"
		},
		{
			"bufferView":3,
			"componentType":5126,
			"count":438,
			"type":"VEC2"
		},
		{
			"bufferView":4,
			"componentType":5121,
			"count":438,
			"type":"VEC4"
		},
		{
			"bufferView":5,
			"componentType":5126,
			"count":438,
			"type":"VEC4"
		},
		{
			"bufferView":6,
			"componentType":5123,
			"count":1764,
			"type":"SCALAR"
		},
		{
			"bufferView":8,
			"componentType":5126,
			"count":8,
			"type":"MAT4"
		},
		{
			"bufferView":9,
			"componentType":5126,
			"count":2,
			"max":[
				1.2
			],
			"min":[
				0
			],
			"type":"SCALAR"
		},
		{
			"bufferView":10,
			"componentType":5126,
			"count":6,
			"type":"VEC4"
		},
		{
			"bufferView":11,
			"componentType":5126,
			"count":6,
			"type":"VEC4"
		},
		{
			"bufferView":12,
			"componentType":5126,
			"count":6,
			"type":"VEC4"
		},
		{
			"bufferView":13,
			"componentType":5126,
			"count":6,
			"type":"VEC4"
		},
		{
			"bufferView":14,
			"componentType":5126,
			"count":6,
			"type":"VEC4"
		},
		{
			"bufferView":15,
			"componentType":5126,
			"count":3,
			"max":[
				1.2
			],
			"min":[
				0
			],
			"type":"SCALAR"
		},
		{
			"bufferView":16,
			"componentType":5126,
			"count":9,
			"type":"VEC4"
		},
		{
			"bufferView":17,
			"componentType":5126,
			"count":6,
			"type":"VEC4"
		},
		{
			"bufferView":18,
			"componentType":5126,
			"count":6,
			"type":"VEC4"
		},
		{
			"bufferView":19,
			"componentType":5126,
			"count":5,
			"max":[
				1.2
			],
			"min":[
				0
			],
			"type":"SCALAR"
		},
		{
			"bufferView":20,
			"componentType":5126,
			"count":15,
			"type":"VEC3"
		},
		{
			"bufferView":21,
			"componentType":5126,
			"count":15,
			"type":"VEC4"
		},
		{
			"bufferView":22,
			"componentType":5126,
			"count":5,
			"max":[
				1.2
			],
			"min":[
				0
			],
			"type":"SCALAR"
		},
		{
			"bufferView":23,
			"componentType":5126,
			"count":15,
			"type":"VEC3"
		},
		{
			"bufferView":24,
			"componentType":5126,
			"count":15,
			"type":"VEC4"
		},
		{
			"bufferView":25,
			"componentType":5126,
			"count":5,
			"max":[
				1.2
			],
			"min":[
				0
			],
			"type":"SCALAR"
		},
		{
			"bufferView":26,
			"componentType":5126,
			"count":15,
			"type":"VEC4"
		},
		{
			"bufferView":27,
			"componentType":5126,
			"count":2,
			"type":"VEC4"
		},
		{
			"bufferView":28,
			"componentType":5126,
			"count":2,
			"type":"VEC3"
		}
	],
	"bufferViews":[
		{
			"buffer":0,
			"byteLength":3504,
			"byteOffset":0,
			"target":34962
		},
		{
			"buffer":0,
			"byteLength":5256,
			"byteOffset":3504,
			"target":34962
		},
		{
			"buffer":0,
			"byteLength":5256,
			"byteOffset":8760,
			"target":34962
		},
		{
			"buffer":0,
			"byteLength":3504,
			"byteOffset":14016,
			"target":34962
		},
		{
			"buffer":0,
			"byteLength":1752,
			"byteOffset":17520,
			"target":34962
		},
		{
			"buffer":0,
			"byteLength":7008,
			"byteOffset":19272,
			"target":34962
		},
		{
			"buffer":0,
			"byteLength":3528,
			"byteOffset":26280,
			"target":34963
		},
		{
			"buffer":0,
			"byteLength":336,
			"byteOffset":29808
		},
		{
			"buffer":0,
			"byteLength":512,
			"byteOffset":30144
		},
		{
			"buffer":0,
			"byteLength":8,
			"byteOffset":30656
		},
		{
			"buffer":0,
			"byteLength":96,
			"byteOffset":30664
		},
		{
			"buffer":0,
			"byteLength":96,
			"byteOffset":30760
		},
		{
			"buffer":0,
			"byteLength":96,
			"byteOffset":30856
		},
		{
			"buffer":0,
			"byteLength":96,
			"byteOffset":30952
		},
		{
			"buffer":0,
			"byteLength":96,
			"byteOffset":31048
		},
		{
			"buffer":0,
			"byteLength":12,
			"byteOffset":31144
		},
		{
			"buffer":0,
			"byteLength":144,
			"byteOffset":31156
		},
		{
			"buffer":0,
			"byteLength":96,
			"byteOffset":31300
		},
		{
			"buffer":0,
			"byteLength":96,
			"byteOffset":31396
		},
		{
			"buffer":0,
			"byteLength":20,
			"byteOffset":31492
		},
		{
			"buffer":0,
			"byteLength":180,
			"byteOffset":31512
		},
		{
			"buffer":0,
			"byteLength":240,
			"byteOffset":31692
		},
		{
			"buffer":0,
			"byteLength":20,
			"byteOffset":31932
		},
		{
			"buffer":0,
			"byteLength":180,
			"byteOffset":31952
		},
		{
			"buffer":0,
			"byteLength":240,
			"byteOffset":32132
		},
		{
			"buffer":0,
			"byteLength":20,
			"byteOffset":32372
		},
		{
			"buffer":0,
			"byteLength":240,
			"byteOffset":32392
		},
		{
			"buffer":0,
			"byteLength":32,
			"byteOffset":32632
		},
		{
			"buffer":0,
			"byteLength":24,
			"byteOffset":32664
		}
	],
	"samplers":[
		{
			"magFilter":9728,
			"minFilter":9984
		}
	],
	"buffers":[
		{
			"byteLength":32688,
			"uri":"data:application/octet-stream;base64,"
		}
	]
}
